<svg xmlns="http://www.w3.org/2000/svg" version="1.1" xmlns:xlink="http://www.w3.org/1999/xlink" width="1000" height="1000"><metadata><rdf:RDF xmlns:rdf="http://www.w3.org/1999/02/22-rdf-syntax-ns#" xmlns:dc="http://purl.org/dc/elements/1.1/"><rdf:Description><dc:creator>RealFaviconGenerator</dc:creator><dc:source>https://realfavicongenerator.net</dc:source></rdf:Description></rdf:RDF></metadata><g clip-path="url(#SvgjsClipPath1009)"><rect width="1000" height="1000" fill="#ffffff"></rect><g transform="matrix(0.4255814323928024,0,0,0.4255814323928024,150,298.44448892108176)"><svg xmlns="http://www.w3.org/2000/svg" version="1.1" id="svg2" width="1644.8086" height="947.20068" viewBox="0 0 1644.8086 947.20068" sodipodi:docname="Gemini_Generated_Image_dfz4i5dfz4i5dfz4.png" xmlns:inkscape="http://www.inkscape.org/namespaces/inkscape" xmlns:sodipodi="http://sodipodi.sourceforge.net/DTD/sodipodi-0.dtd" xmlns:svg="http://www.w3.org/2000/svg"><defs id="defs6"><clipPath id="SvgjsClipPath1009"><rect width="1000" height="1000" x="0" y="0" rx="350" ry="350"></rect></clipPath></defs><sodipodi:namedview id="namedview4" pagecolor="#ffffff" bordercolor="#000000" borderopacity="0.25" inkscape:showpageshadow="2" inkscape:pageopacity="0.0" inkscape:pagecheckerboard="0" inkscape:deskcolor="#d1d1d1" showgrid="false"></sodipodi:namedview><g inkscape:groupmode="layer" inkscape:label="Image" id="g8" transform="translate(-2265.4985,-39.081978)">
    <g id="g116" transform="matrix(2.3292272,0,0,2.102064,879.57615,-597.45232)">
      <path style="fill:#d0d0d0;fill-opacity:1;stroke-width:1.33333" d="m 1075.0254,744.40935 c 1.2972,-0.33806 3.0972,-0.31583 4,0.0495 0.9027,0.36524 -0.1588,0.64183 -2.3588,0.61466 -2.2,-0.0272 -2.9385,-0.326 -1.6412,-0.66406 z M 989.01553,643.05699 c 1.65855,-0.31892 4.05855,-0.30682 5.33333,0.0269 1.27479,0.33372 -0.0823,0.59467 -3.01554,0.57987 -2.93334,-0.0148 -3.97634,-0.28786 -2.31779,-0.60678 z m 9.31779,0.06 c 0.91666,-0.36988 2.41668,-0.36988 3.33328,0 0.9167,0.36988 0.1667,0.67252 -1.66662,0.67252 -1.83333,0 -2.58333,-0.30264 -1.66666,-0.67252 z m 46.66668,-0.1 c 3.85,-0.26934 10.15,-0.26934 14,0 3.85,0.26933 0.7,0.4897 -7,0.4897 -7.7,0 -10.85,-0.22037 -7,-0.4897 z m 186.2066,-296.68366 -2.54,-3 3,2.53999 c 2.8193,2.38696 3.607,3.46001 2.54,3.46001 -0.253,0 -1.603,-1.35 -3,-3 z m -224.2741,-43.3251 c 6.3796,-0.24388 17.1796,-0.24503 24,-0.003 6.8205,0.24248 1.6008,0.44201 -11.5992,0.44341 -13.2,10e-4 -18.7803,-0.19698 -12.4008,-0.44086 z" id="path132"></path>
      <path style="fill:#b9b9b9;fill-opacity:1;stroke-width:1.33333" d="m 936.43088,744.33379 c 25.537,-0.20271 66.93702,-0.2026 92.00002,2.5e-4 25.063,0.20284 4.1691,0.36869 -46.43092,0.36856 -50.6,-1.3e-4 -71.10609,-0.16609 -45.5691,-0.36881 z M 1232,679.49659 c 0,-0.27687 1.05,-1.32687 2.3333,-2.33334 2.1148,-1.65849 2.1619,-1.61133 0.5034,0.50342 -1.7418,2.221 -2.8367,2.9273 -2.8367,1.82992 z m -228.3334,-36.37963 c 0.9167,-0.36988 2.4167,-0.36988 3.3334,0 0.9166,0.36988 0.1666,0.67252 -1.6667,0.67252 -1.8333,0 -2.5833,-0.30264 -1.6667,-0.67252 z m 10.6667,-0.0932 c 3.1167,-0.28071 8.2167,-0.28071 11.3333,0 3.1167,0.28072 0.5667,0.5104 -5.6666,0.5104 -6.2334,0 -8.7834,-0.22968 -5.6667,-0.5104 z m 21.4167,0.0655 c 0.9625,-0.38516 2.1125,-0.3378 2.5555,0.1052 0.4431,0.44305 -0.3444,0.75818 -1.75,0.70029 -1.5532,-0.064 -1.8692,-0.37992 -0.8055,-0.80555 z m 33.2739,-0.0555 c 2.3964,-0.29675 5.9964,-0.29063 8,0.0136 2.0035,0.30424 0.043,0.54703 -4.3573,0.53955 -4.4,-0.008 -6.0392,-0.2564 -3.6427,-0.55315 z M 1198.976,516 c 0,-2.56667 0.2744,-3.61667 0.6098,-2.33333 0.3353,1.28333 0.3353,3.38333 0,4.66666 -0.3354,1.28334 -0.6098,0.23334 -0.6098,-2.33333 z m 36.8539,-165 c -1.6585,-2.11475 -1.6113,-2.16191 0.5034,-0.50341 2.221,1.74182 2.9273,2.83674 1.8299,2.83674 -0.2768,0 -1.3268,-1.05 -2.3333,-2.33333 z M 977.66665,303.01995 c 3.48333,-0.27467 9.18333,-0.27467 12.66667,0 3.48333,0.27466 0.63333,0.49938 -6.33334,0.49938 -6.96666,0 -9.81666,-0.22472 -6.33333,-0.49938 z" id="path130"></path>
      <path style="fill:#a3a3a3;fill-opacity:1;stroke-width:1.33333" d="m 1236,675.49659 c 0,-0.27687 1.05,-1.32687 2.3333,-2.33334 2.1148,-1.65849 2.1619,-1.61133 0.5034,0.50342 -1.7418,2.221 -2.8367,2.9273 -2.8367,1.82992 z M 967.63692,641.70436 c 2.36697,-0.29455 6.56697,-0.29939 9.33333,-0.0107 2.76635,0.28864 0.82973,0.52963 -4.3036,0.53555 -5.13333,0.005 -7.39672,-0.23024 -5.02973,-0.52479 z M 1300.2105,521.33333 c 0,-1.83333 0.3026,-2.58333 0.6725,-1.66666 0.3699,0.91666 0.3699,2.41666 0,3.33333 -0.3699,0.91667 -0.6725,0.16667 -0.6725,-1.66667 z m -101.4386,-11.44444 c 0.064,-1.55326 0.3799,-1.8692 0.8056,-0.80556 0.3851,0.9625 0.3378,2.11251 -0.1052,2.55556 -0.4431,0.44306 -0.7582,-0.34445 -0.7003,-1.75 z m 101.4386,-3.22222 c 0,-1.83334 0.3026,-2.58334 0.6725,-1.66667 0.3699,0.91667 0.3699,2.41667 0,3.33333 -0.3699,0.91667 -0.6725,0.16667 -0.6725,-1.66666 z m -139.6705,-88.33334 -2.54,-3 3,2.53999 c 1.65,1.39699 3,2.74699 3,3 0,1.067 -1.0731,0.27927 -3.46,-2.53999 z M 604.97026,305.70436 c 2.36697,-0.29455 6.56697,-0.29939 9.33333,-0.0107 2.76635,0.28864 0.82973,0.52963 -4.3036,0.53555 -5.13333,0.005 -7.39672,-0.23024 -5.02973,-0.52479 z m 360.69639,-2.62347 c 1.28333,-0.33536 3.38333,-0.33536 4.66667,0 1.28333,0.33538 0.23333,0.60978 -2.33334,0.60978 -2.56666,0 -3.61666,-0.2744 -2.33333,-0.60978 z" id="path128"></path>
      <path style="fill:#8c8c8c;fill-opacity:1;stroke-width:1.33333" d="m 951.66665,641.70213 c 2.38333,-0.29576 6.28333,-0.29576 8.66667,0 2.38333,0.29578 0.43333,0.53778 -4.33334,0.53778 -4.76666,0 -6.71666,-0.242 -4.33333,-0.53778 z M 1300.3362,514 c 0.015,-2.93333 0.2879,-3.97633 0.6068,-2.31779 0.3189,1.65855 0.3068,4.05855 -0.027,5.33334 -0.3338,1.27478 -0.5947,-0.0823 -0.5799,-3.01555 z M 1039.8393,380.95576 c 0.5771,-0.57433 8.1993,-0.8716 16.9383,-0.6606 l 15.889,0.38364 -16.9382,0.6606 c -9.316,0.36333 -16.4661,0.19069 -15.8891,-0.38364 z m -417.53571,-75.2514 c 2.36697,-0.29455 6.56697,-0.29939 9.33333,-0.0107 2.76635,0.28864 0.82974,0.52963 -4.3036,0.53555 -5.13333,0.005 -7.39672,-0.23024 -5.02973,-0.52479 z" id="path126"></path>
      <path style="fill:#767676;fill-opacity:1;stroke-width:1.33333" d="m 944.97776,642.50121 c 0.90445,-0.91122 1.98032,-1.32089 2.39084,-0.91037 0.41052,0.41052 -0.32948,1.15607 -1.64444,1.65677 -1.90027,0.72358 -2.05342,0.57043 -0.7464,-0.7464 z M 1162,606.66667 C 1163.3273,605.2 1164.7133,604 1165.08,604 c 0.3666,0 -0.4194,1.2 -1.7467,2.66667 -1.3273,1.46666 -2.7133,2.66666 -3.08,2.66666 -0.3666,0 0.4194,-1.2 1.7467,-2.66666 z m -88.9167,-226.24415 c 0.9625,-0.38516 2.1125,-0.3378 2.5556,0.1052 0.443,0.44305 -0.3445,0.75819 -1.75,0.70029 -1.5533,-0.064 -1.8692,-0.37992 -0.8056,-0.80554 z M 639.63692,305.70436 c 2.36698,-0.29455 6.56698,-0.29939 9.33334,-0.0107 2.76634,0.28864 0.82973,0.52963 -4.3036,0.53555 -5.13334,0.005 -7.39672,-0.23024 -5.02974,-0.52479 z" id="path124"></path>
      <path style="fill:#606060;fill-opacity:1;stroke-width:1.33333" d="m 1077.0833,380.42252 c 0.9625,-0.38516 2.1125,-0.3378 2.5556,0.1052 0.443,0.44305 -0.3445,0.75819 -1.75,0.70029 -1.5533,-0.064 -1.8692,-0.37992 -0.8056,-0.80554 z m 148.0799,-38.75585 c -1.6585,-2.11475 -1.6113,-2.16191 0.5034,-0.50342 1.2834,1.00647 2.3334,2.05647 2.3334,2.33334 0,1.09738 -1.0949,0.39108 -2.8368,-1.82992 z m -569.481,-35.94302 c 1.65855,-0.31892 4.05855,-0.30681 5.33333,0.0269 1.27479,0.33372 -0.0823,0.59466 -3.01554,0.57986 -2.93333,-0.0148 -3.97633,-0.28785 -2.31779,-0.60677 z m 505.3333,-1.33333 c 1.6586,-0.31892 4.0586,-0.30681 5.3334,0.0269 1.2747,0.33372 -0.082,0.59467 -3.0156,0.57987 -2.9333,-0.0148 -3.9763,-0.28785 -2.3178,-0.60677 z" id="path122"></path>
      <path style="fill:#494949;fill-opacity:1;stroke-width:1.33333" d="m 831.40419,747.33333 c -1.26028,-3.3 -2.8772,-6 -3.59316,-6 -0.71596,0 -0.93094,-0.6 -0.47771,-1.33333 0.45323,-0.73333 0.0887,-1.33333 -0.8102,-1.33333 -0.89884,0 -1.25817,-0.37607 -0.79853,-0.83571 1.08465,-1.08465 -2.73947,-8.49763 -4.38367,-8.49763 -0.69148,0 -0.92315,-0.87064 -0.5148,-1.93476 0.67155,-1.75002 -5.38765,-11.42722 -7.83444,-12.51245 -0.55457,-0.24597 -0.66916,-0.99597 -0.25464,-1.66667 0.41451,-0.67069 0.0183,-1.21945 -0.88059,-1.21945 -0.89884,0 -1.24565,-0.3886 -0.77069,-0.86355 C 812.14109,710.08112 806.64029,700 805.00911,700 c -0.64158,0 -0.79568,-0.6 -0.34246,-1.33333 0.45323,-0.73334 0.15323,-1.33334 -0.66666,-1.33334 -0.8199,0 -1.1199,-0.6 -0.66667,-1.33333 0.45323,-0.73333 0.23516,-1.33333 -0.48457,-1.33333 -0.71975,0 -2.00168,-2.1 -2.84876,-4.66667 -0.84708,-2.56667 -2.12902,-4.66667 -2.84876,-4.66667 -0.71974,0 -0.9378,-0.6 -0.48458,-1.33333 0.45323,-0.73333 0.15323,-1.33333 -0.66666,-1.33333 -0.8199,0 -1.1199,-0.6 -0.66667,-1.33334 C 795.78655,680.6 795.42199,680 794.52312,680 c -0.89884,0 -1.25817,-0.37607 -0.79853,-0.83571 1.13082,-1.13082 -2.77398,-8.49762 -4.5042,-8.49762 -0.75778,0 -1.00696,-0.6 -0.55374,-1.33334 C 789.11988,668.6 788.81988,668 787.99999,668 c -0.8199,0 -1.1199,-0.6 -0.66667,-1.33333 0.45323,-0.73334 0.18864,-1.33334 -0.58797,-1.33334 -0.77662,0 -1.26203,-0.48246 -1.0787,-1.07214 0.4769,-1.5339 -4.72266,-10.92786 -6.04856,-10.92786 -0.60985,0 -0.738,-0.6 -0.28477,-1.33333 0.45323,-0.73333 0.15323,-1.33333 -0.66667,-1.33333 -0.81989,0 -1.11989,-0.6 -0.66666,-1.33334 C 778.45321,648.6 778.30916,648 777.67987,648 c -0.62931,0 -1.90355,-2.1 -2.83167,-4.66667 -0.92812,-2.56666 -2.28407,-4.66666 -3.0132,-4.66666 -0.72915,0 -0.95491,-0.6 -0.50168,-1.33334 C 771.78655,636.6 771.48655,636 770.66665,636 c -0.81989,0 -1.11989,-0.6 -0.66666,-1.33333 0.45322,-0.73334 0.0887,-1.33334 -0.8102,-1.33334 -0.89884,0 -1.25818,-0.37606 -0.79854,-0.8357 C 769.52208,631.3668 765.61728,624 763.88705,624 c -0.75777,0 -1.00696,-0.6 -0.55373,-1.33333 0.45323,-0.73334 0.15323,-1.33334 -0.66667,-1.33334 -0.81989,0 -1.11989,-0.6 -0.66666,-1.33333 0.45322,-0.73333 0.18864,-1.33333 -0.58798,-1.33333 -0.77661,0 -1.26202,-0.48247 -1.07869,-1.07215 0.47689,-1.53389 -4.72267,-10.92785 -6.04856,-10.92785 -0.60985,0 -0.738,-0.6 -0.28477,-1.33334 C 754.45321,604.6 754.15321,604 753.33332,604 c -0.81989,0 -1.11989,-0.6 -0.66667,-1.33333 0.45323,-0.73334 0.22747,-1.33334 -0.50168,-1.33334 -0.72913,0 -2.08508,-2.1 -3.0132,-4.66666 C 748.22365,594.1 746.94941,592 746.32011,592 c -0.6293,0 -0.77335,-0.6 -0.32012,-1.33333 0.45322,-0.73334 0.0887,-1.33334 -0.8102,-1.33334 -0.89884,0 -1.26479,-0.36945 -0.81323,-0.82101 1.08009,-1.08011 -5.61508,-13.84565 -7.26167,-13.84565 -0.69976,0 -0.92198,-0.56679 -0.49385,-1.25954 0.75556,-1.22253 -6.65232,-14.59814 -8.97615,-16.20728 -0.63554,-0.44008 -1.31609,-1.64008 -1.51232,-2.66666 -0.64484,-3.37335 -3.8697,-9.19986 -5.09196,-9.19986 -0.6589,0 -0.77093,-0.69102 -0.24894,-1.5356 0.52197,-0.84458 -0.1573,-2.34458 -1.50948,-3.33333 -1.3522,-0.98876 -2.02846,-1.79773 -1.5028,-1.79773 0.52566,0 0.0249,-1.8 -1.11274,-4 -1.13766,-2.2 -2.68848,-4 -3.44626,-4 -0.75778,0 -1.00696,-0.6 -0.55374,-1.33334 C 713.11988,528.6 712.81988,528 711.99999,528 c -0.8199,0 -1.1199,-0.6 -0.66667,-1.33333 0.45323,-0.73334 0.0887,-1.33334 -0.8102,-1.33334 -0.89884,0 -1.26281,-0.37142 -0.80885,-0.8254 0.45397,-0.45396 -0.046,-1.69682 -1.11111,-2.7619 -1.06508,-1.06508 -1.93651,-3.11248 -1.93651,-4.54978 0,-1.4373 -0.89656,-2.95732 -1.99234,-3.37781 -1.09579,-0.42049 -1.66038,-1.30167 -1.25464,-1.95815 0.40573,-0.65649 0.0669,-1.19362 -0.75302,-1.19362 -0.81989,0 -1.11989,-0.6 -0.66666,-1.33334 C 702.45321,508.6 702.18863,508 701.41201,508 c -0.77661,0 -1.26936,-0.45 -1.095,-1 0.65722,-2.07305 -3.35232,-9.59623 -4.67777,-8.77704 -0.82821,0.51185 -0.98144,0.20339 -0.38132,-0.76763 0.55181,-0.89285 0.12107,-2.63556 -0.95719,-3.87268 -1.07826,-1.23713 -3.0054,-4.49932 -4.28253,-7.24932 -1.27713,-2.75 -2.88911,-5 -3.58216,-5 -0.69305,0 -0.88928,-0.6 -0.43605,-1.33333 0.45322,-0.73333 0.15322,-1.33333 -0.66667,-1.33333 -0.81989,0 -1.15156,-0.54876 -0.73705,-1.21946 0.41452,-0.67069 0.14398,-1.42268 -0.60119,-1.67106 -0.74516,-0.24839 -1.60315,-1.74096 -1.90664,-3.31683 -0.82739,-4.29631 -4.63411,-11.12599 -6.20139,-11.12599 -0.75777,0 -1.00696,-0.6 -0.55373,-1.33333 0.45323,-0.73333 0.0887,-1.33333 -0.8102,-1.33333 -0.89884,0 -1.24565,-0.3886 -0.77069,-0.86355 1.05533,-1.05533 -4.44547,-11.13645 -6.07666,-11.13645 -0.64157,0 -0.79568,-0.6 -0.34245,-1.33334 C 667.78655,444.6 667.48655,444 666.66665,444 c -0.81989,0 -1.11989,-0.6 -0.66666,-1.33333 0.45322,-0.73334 0.15322,-1.33334 -0.66667,-1.33334 -0.81989,0 -1.11989,-0.6 -0.66667,-1.33333 0.45323,-0.73333 0.30918,-1.33333 -0.32012,-1.33333 -0.6293,0 -1.90354,-2.1 -2.83166,-4.66667 -0.92812,-2.56667 -2.28407,-4.66667 -3.0132,-4.66667 -0.72915,0 -0.95491,-0.6 -0.50168,-1.33333 0.45322,-0.73333 0.15322,-1.33333 -0.66667,-1.33333 -0.81989,0 -1.11989,-0.6 -0.66666,-1.33334 C 657.11988,424.6 656.81988,424 655.99999,424 c -0.81989,0 -1.11989,-0.6 -0.66667,-1.33333 0.45323,-0.73334 0.0887,-1.33334 -0.8102,-1.33334 -0.89884,0 -1.25005,-0.38418 -0.78049,-0.85376 C 654.76788,419.45433 650.56979,412 648.96716,412 c -0.6185,0 -0.75373,-0.6 -0.3005,-1.33333 0.45322,-0.73334 0.15322,-1.33334 -0.66667,-1.33334 -0.81989,0 -1.11989,-0.6 -0.66667,-1.33333 0.45323,-0.73333 0.15323,-1.33333 -0.66666,-1.33333 -0.8199,0 -1.1199,-0.6 -0.66667,-1.33334 C 646.45322,404.6 646.08866,404 645.18979,404 c -0.89884,0 -1.25817,-0.37607 -0.79853,-0.83571 1.13082,-1.13082 -2.77398,-8.49762 -4.5042,-8.49762 -0.75778,0 -1.00696,-0.6 -0.55374,-1.33334 C 639.78655,392.6 639.48655,392 638.66666,392 c -0.8199,0 -1.1199,-0.6 -0.66667,-1.33333 0.45323,-0.73334 0.15323,-1.33334 -0.66667,-1.33334 -0.81989,0 -1.11989,-0.6 -0.66666,-1.33333 0.45322,-0.73333 0.15322,-1.33333 -0.66667,-1.33333 -0.81989,0 -1.11989,-0.6 -0.66667,-1.33334 C 635.78655,384.6 635.6425,384 635.0132,384 c -0.6293,0 -1.90354,-2.1 -2.83166,-4.66667 -0.92812,-2.56666 -2.28407,-4.66666 -3.0132,-4.66666 -0.72915,0 -0.95491,-0.6 -0.50168,-1.33334 C 629.11988,372.6 628.81988,372 627.99999,372 c -0.81989,0 -1.15156,-0.54876 -0.73705,-1.21945 0.41452,-0.6707 0.14398,-1.42268 -0.60119,-1.67107 -0.74516,-0.24839 -1.63028,-1.88181 -1.96692,-3.62983 -0.33663,-1.74801 -1.53069,-4.19328 -2.65345,-5.43392 -1.12276,-1.24064 -2.04139,-2.95846 -2.04139,-3.81738 0,-0.85892 -0.63541,-1.56168 -1.41203,-1.56168 -0.77661,0 -1.0412,-0.6 -0.58797,-1.33334 C 618.45322,352.6 618.28863,352 617.63423,352 c -0.65439,0 -1.19009,-0.75 -1.19047,-1.66667 -10e-4,-2.97556 -4.7025,-11.66413 -5.90817,-10.919 -0.64445,0.3983 -0.81635,-0.20193 -0.38199,-1.33384 0.46459,-1.2107 -0.0875,-2.39464 -1.34094,-2.87564 -1.17188,-0.44968 -1.79872,-1.35474 -1.39299,-2.01122 0.40573,-0.6565 0.19341,-1.19363 -0.47183,-1.19363 -0.66524,0 -2.3182,-2.55 -3.67326,-5.66667 -1.35506,-3.11666 -3.52846,-7.2344 -4.82978,-9.1505 -1.3013,-1.91611 -1.98376,-3.86611 -1.51653,-4.33334 C 597.3955,312.38227 597.20546,312 596.50595,312 c -0.69949,0 -1.36221,-1.2 -1.47269,-2.66667 -0.19391,-2.57418 0.62106,-2.66666 23.50078,-2.66666 13.03592,0 37.14863,-0.38479 53.5838,-0.85508 l 29.88215,-0.85508 3.66666,7.55128 c 3.77452,7.77341 4.5712,10.87529 2.45768,9.56906 -0.66494,-0.41096 -0.90825,0.40282 -0.54069,1.80839 0.36757,1.40556 2.13615,2.92399 3.93019,3.37425 1.79404,0.45028 2.9273,1.36004 2.51838,2.0217 -0.40893,0.66166 0.46272,2.04789 1.93699,3.0805 1.47427,1.03263 2.29843,2.25955 1.83147,2.72652 -0.46696,0.46696 0.13685,1.22734 1.34181,1.68972 1.20496,0.46239 2.19084,1.6467 2.19084,2.6318 0,0.98511 0.85739,2.27091 1.90529,2.85735 1.04791,0.58644 2.0243,1.66625 2.16976,2.39959 0.4172,2.10336 1.40372,5.10565 2.62872,8 0.62075,1.46666 1.50954,4.02537 1.9751,5.68602 0.46554,1.66066 1.38025,2.68946 2.03266,2.28624 0.65243,-0.40321 2.42142,1.68807 3.93111,4.64731 1.50969,2.95924 3.36811,5.38043 4.12981,5.38043 0.76171,0 1.01411,0.6 0.56088,1.33333 -0.45322,0.73333 -0.25414,1.33333 0.4424,1.33333 0.69655,0 2.96547,3.9 5.04206,8.66667 2.07658,4.76667 4.2775,8.66667 4.89093,8.66667 0.61343,0 0.74451,0.6 0.29128,1.33333 -0.45323,0.73333 -0.20747,1.33333 0.54613,1.33333 0.7536,0 0.98704,0.99843 0.51878,2.21872 -0.63575,1.65672 -0.37184,1.9364 1.04184,1.10415 1.12524,-0.66245 0.93308,-0.0175 -0.47372,1.59009 -2.10882,2.4097 -2.14516,2.88876 -0.33334,4.39246 1.11851,0.92828 2.05767,1.1643 2.08703,0.5245 0.0293,-0.63978 0.95597,0.50098 2.05915,2.53503 1.10317,2.03405 1.66312,4.25269 1.24433,4.93031 -0.41879,0.67761 0.41999,1.00449 1.86395,0.72641 1.9526,-0.37603 2.41617,0.0396 1.80902,1.62176 -0.60048,1.56481 -0.3157,1.83671 1.07691,1.0282 1.04129,-0.60453 1.46425,-0.62397 0.93993,-0.0432 -0.96336,1.06709 5.28892,12.99151 7.24554,13.81876 0.58174,0.24597 0.71858,0.99597 0.30406,1.66667 -0.4145,0.67072 -0.0828,1.21948 0.73706,1.21948 0.81989,0 1.11989,0.6 0.66666,1.33333 -0.45322,0.73333 -0.15322,1.33333 0.66667,1.33333 0.81989,0 1.11989,0.6 0.66667,1.33334 -0.45323,0.73333 -0.0887,1.33333 0.8102,1.33333 0.89884,0 1.2883,0.34595 0.86549,0.76876 -0.42283,0.42281 0.40832,3.42973 1.84696,6.68203 1.43865,3.2523 2.24919,6.50637 1.80119,7.23125 -0.448,0.72488 -0.0208,1.31796 0.94938,1.31796 0.97016,0 3.24722,2.4 5.06011,5.33333 1.81289,2.93334 3.78995,5.33334 4.39344,5.33334 0.60351,0 0.72645,0.6 0.27323,1.33333 -0.45323,0.73333 -0.15323,1.33333 0.66666,1.33333 0.8199,0 1.1199,0.6 0.66667,1.33334 C 790.88009,467.4 791.18009,468 791.99999,468 c 0.81989,0 1.11989,0.6 0.66666,1.33333 -0.45322,0.73334 -0.15322,1.33334 0.66667,1.33334 0.81989,0 1.11989,0.6 0.66667,1.33333 -0.45323,0.73333 -0.15323,1.33333 0.66666,1.33333 0.8199,0 1.1199,0.6 0.66667,1.33334 C 794.88009,475.4 795.14468,476 795.92129,476 c 0.77662,0 1.26763,0.45 1.09115,1 -0.63509,1.97927 5.79529,15.07019 7.02829,14.30815 0.71912,-0.44444 0.88435,0.20429 0.38407,1.508 -0.65972,1.71917 -0.40732,2.01472 1.01527,1.18881 1.04129,-0.60453 1.46425,-0.62397 0.93993,-0.0432 -0.96336,1.06709 5.28892,12.99151 7.24553,13.81876 0.58175,0.24597 0.71859,0.99597 0.30407,1.66667 -0.41451,0.67072 -0.0828,1.21948 0.73705,1.21948 0.8199,0 1.1199,0.6 0.66667,1.33333 -0.45323,0.73333 -0.15323,1.33333 0.66667,1.33333 0.81989,0 1.11989,0.6 0.66666,1.33334 C 816.21343,515.4 816.42184,516 817.1298,516 c 0.70796,0 0.9734,1.2 0.58985,2.66667 -0.38354,1.46666 -0.13849,2.66666 0.54455,2.66666 0.68304,0 2.24331,2.1 3.46727,4.66667 1.22396,2.56667 2.87049,4.66667 3.65897,4.66667 0.78848,0 1.06277,0.6 0.60955,1.33333 -0.45323,0.73333 -0.0887,1.33333 0.8102,1.33333 0.89884,0 1.26018,0.37406 0.80301,0.83123 -0.45717,0.45717 0.63996,2.76004 2.43807,5.11749 1.7981,2.35744 2.87216,4.68339 2.38678,5.16878 -0.48538,0.48537 -0.1471,0.8825 0.75174,0.8825 0.89884,0 1.22777,0.65768 0.73098,1.46151 -0.55906,0.9046 0.0323,1.28133 1.5519,0.98869 2.5961,-0.49996 8.8147,-10.23985 7.69477,-12.05193 -0.36199,-0.58572 0.0126,-1.06493 0.83255,-1.06493 0.81989,0 1.11989,-0.6 0.66666,-1.33334 C 844.21343,532.6 844.51343,532 845.33332,532 c 0.81989,0 1.11989,-0.6 0.66666,-1.33333 -0.45322,-0.73334 -0.19533,-1.33334 0.5731,-1.33334 1.72508,0 12.28264,-20.69981 11.14024,-21.84222 -0.45344,-0.45344 -0.0891,-0.82444 0.8098,-0.82444 0.89884,0 1.26342,-0.6 0.8102,-1.33334 C 858.88009,504.6 859.18009,504 859.99998,504 c 0.8199,0 1.1199,-0.6 0.66667,-1.33333 -0.45323,-0.73334 -0.15323,-1.33334 0.66667,-1.33334 0.81989,0 1.15874,-0.53713 0.75301,-1.19362 -0.40573,-0.65648 0.22111,-1.56155 1.39299,-2.01123 1.17186,-0.44969 1.8063,-1.66291 1.40986,-2.69604 -0.39645,-1.03313 0.20355,-2.23313 1.33334,-2.66667 1.19128,-0.45713 1.72241,-1.65274 1.26441,-2.84626 -0.43436,-1.13191 -0.23539,-1.7154 0.44215,-1.29667 1.22008,0.75405 9.04342,-15.03163 8.40344,-16.95617 -0.1829,-0.55 0.30288,-1 1.07949,-1 0.77661,0 1.0412,-0.6 0.58797,-1.33334 C 877.54676,468.6 877.84676,468 878.66665,468 c 0.81989,0 1.11989,-0.6 0.66667,-1.33333 -0.45323,-0.73334 -0.20404,-1.33334 0.55373,-1.33334 1.84349,0 5.76777,-7.73442 4.7554,-9.37249 -0.43992,-0.7118 -0.21859,-1.29417 0.49184,-1.29417 1.76967,0 13.57683,-23.48568 12.44205,-24.74852 -0.50033,-0.55679 -0.22256,-0.6196 0.61727,-0.13958 1.68841,0.96507 3.58535,-2.64549 2.39868,-4.56556 -0.41233,-0.66716 -0.0789,-1.21301 0.74103,-1.21301 0.81989,0 1.11989,-0.6 0.66666,-1.33333 -0.45322,-0.73334 -0.15322,-1.33334 0.66667,-1.33334 0.81989,0 1.11989,-0.6 0.66667,-1.33333 -0.45323,-0.73333 -0.15323,-1.33333 0.66666,-1.33333 0.8199,0 1.1199,-0.6 0.66667,-1.33334 C 904.21342,416.6 904.37166,416 905.01829,416 c 1.30933,0 7.75104,-12.09208 7.28052,-13.66667 -0.16436,-0.55 0.22839,-1 0.87275,-1 1.31692,0 4.98784,-8.06374 4.44574,-9.76577 -0.19253,-0.60451 0.36678,-0.65608 1.2429,-0.11467 1.08397,0.66992 1.32288,0.28068 0.74769,-1.21824 -0.52117,-1.35813 -0.22461,-2.08105 0.77341,-1.88538 0.89666,0.17578 1.57464,-0.99128 1.51994,-2.61638 -0.0543,-1.61353 0.29497,-2.69037 0.77618,-2.39296 0.93443,0.5775 7.29946,-12.65856 6.8959,-14.34 -0.132,-0.55 0.39541,-1 1.17202,-1 0.77662,0 1.0412,-0.6 0.58798,-1.33333 -0.45323,-0.73333 -0.15323,-1.33333 0.66666,-1.33333 0.8199,0 1.1199,-0.6 0.66667,-1.33334 -0.45323,-0.73333 -0.15323,-1.33333 0.66667,-1.33333 0.81989,0 1.11989,-0.6 0.66666,-1.33333 -0.45322,-0.73334 -0.15322,-1.33334 0.66667,-1.33334 0.81989,0 1.11989,-0.6 0.66667,-1.33333 -0.45323,-0.73333 -0.15323,-1.33333 0.66666,-1.33333 0.8199,0 1.1199,-0.6 0.66667,-1.33334 -0.45323,-0.73333 -0.15323,-1.33333 0.66667,-1.33333 0.81989,0 1.11989,-0.6 0.66666,-1.33333 -0.45322,-0.73334 -0.1941,-1.33334 0.57583,-1.33334 0.76992,0 4.4108,-6 8.09084,-13.33333 3.68004,-7.33333 6.34265,-13.33333 5.91692,-13.33333 -0.42573,0 0.17431,-0.94838 1.33343,-2.1075 1.15912,-1.15912 1.76657,-2.65912 1.34988,-3.33333 -0.41668,-0.67415 -0.0868,-1.22577 0.7331,-1.22577 0.8199,0 1.1199,-0.6 0.66667,-1.33334 C 956.21342,316.6 956.51342,316 957.33332,316 c 0.81989,0 1.11989,-0.6 0.66666,-1.33333 -0.45322,-0.73334 -0.15322,-1.33334 0.66667,-1.33334 0.81989,0 1.11989,-0.6 0.66667,-1.33333 -0.45323,-0.73333 -0.28495,-1.33333 0.37396,-1.33333 0.65889,0 1.89349,-1.52646 2.74354,-3.39212 l 1.54556,-3.39212 102.66842,0.1833 c 68.3543,0.122 102.6685,0.63502 102.6685,1.53478 0,0.7433 0.8504,1.02516 1.8897,0.62633 1.0393,-0.39881 2.2443,0.19924 2.6779,1.32903 0.4428,1.15401 1.6597,1.71973 2.777,1.29098 1.0938,-0.41973 1.9887,-0.14658 1.9887,0.60702 0,0.7536 0.6,0.99936 1.3334,0.54613 0.7333,-0.45323 1.3333,-0.20007 1.3333,0.56257 0,0.76264 1.5,1.7631 3.3333,2.22324 1.8334,0.46014 3.3334,1.40698 3.3334,2.1041 0,0.6971 0.6,0.89665 1.3333,0.44342 0.7333,-0.45322 1.3333,-0.18864 1.3333,0.58798 0,0.77661 0.9,1.41202 2,1.41202 1.1,0 2,0.6 2,1.33334 0,0.73333 0.5955,1.33333 1.3232,1.33333 0.7278,0 2.8759,1.35 4.7735,3 1.8977,1.65 3.6727,2.88165 3.9445,2.73701 0.2717,-0.14465 2.3847,1.50306 4.6954,3.66158 2.3107,2.1585 4.7551,3.58225 5.432,3.16388 0.677,-0.41838 1.066,-0.25251 0.8645,0.3686 -0.4242,1.30746 10.022,11.06893 11.8453,11.06893 1.5234,0 14.518,13.08619 14.2836,14.38423 -0.3008,1.66593 5.8374,8.17202 6.8009,7.2085 0.5093,-0.50933 0.7307,-0.32606 0.4919,0.40727 -0.6246,1.91876 3.5945,7.50628 4.776,6.32485 0.5453,-0.54533 0.7958,-0.39152 0.5567,0.34182 -0.544,1.66836 8.2335,15.33333 9.8491,15.33333 0.6531,0 0.8728,0.50913 0.4882,1.13141 -0.3845,0.62227 0.5034,2.42227 1.9733,4 1.4699,1.57772 2.339,2.86859 1.9314,2.86859 -0.4076,0 0.7792,3 2.6372,6.66667 1.8581,3.66666 4.0036,6.66666 4.7678,6.66666 0.7643,0 1.087,0.48968 0.7171,1.08816 -1.0928,1.76819 2.8897,11.61154 4.5362,11.21214 0.8308,-0.2015 1.1982,0.1388 0.8167,0.75624 -0.6717,1.08669 1.1823,7.36536 4.6094,15.61013 0.9145,2.2 1.713,4.4 1.7744,4.88889 0.062,0.48888 0.5204,1.29755 1.0199,1.79702 0.4994,0.49948 0.5853,1.74948 0.1907,2.77778 -0.3946,1.0283 -0.1095,1.86964 0.6337,1.86964 0.7431,0 1.0373,1.2 0.6538,2.66667 -0.3836,1.46667 -0.084,2.66667 0.6666,2.66667 0.7503,0 1.0503,1.2 0.6667,2.66666 -0.3835,1.46667 -0.1105,2.66667 0.6066,2.66667 0.7172,0 1.0172,1.5 0.6667,3.33333 -0.3504,1.83334 -0.071,3.33334 0.6207,3.33334 0.6918,0 0.9811,1.88522 0.643,4.1894 -0.4073,2.77482 -0.1308,3.89025 0.8186,3.30345 0.9685,-0.59856 1.1862,0.63756 0.6713,3.8106 -0.4497,2.77107 -0.2111,4.69655 0.5819,4.69655 0.8042,0 1.0724,2.40984 0.6677,6 -0.372,3.3 -0.1483,5.9999 0.4971,5.9998 1.3614,-2.4e-4 1.2579,37.70612 -0.1096,39.91878 -0.5035,0.81476 -0.7481,3.42504 -0.5434,5.8006 0.2046,2.37558 -0.1072,5.09467 -0.6929,6.04246 -0.5858,0.94778 -0.6845,3.23942 -0.2194,5.09252 0.6011,2.39494 0.3928,3.08941 -0.7203,2.40149 -1.1142,-0.68863 -1.3885,0.24065 -0.951,3.22161 0.3381,2.30418 0.049,4.1894 -0.643,4.1894 -0.6918,0 -0.9684,1.51432 -0.6146,3.36516 0.3539,1.85083 0.083,3.71152 -0.6021,4.13487 -0.685,0.42333 -0.9307,1.5898 -0.5461,2.59215 0.3847,1.00233 0.085,2.20233 -0.6666,2.66666 -0.7513,0.46432 -1.0665,1.62488 -0.7003,2.579 0.3661,0.95414 0.257,2.14344 -0.2425,2.64292 -0.4995,0.49947 -0.9831,1.45814 -1.0748,2.13035 -0.092,0.67223 -0.3166,1.52223 -0.5,1.88889 -0.1833,0.36667 -0.4296,1.11667 -0.5472,1.66667 -0.1176,0.55 -0.8717,2.2 -1.6756,3.66667 -1.4866,2.71206 -3.4888,10.57328 -3.0977,12.16206 0.1183,0.48022 -0.4664,1.29419 -1.299,1.80883 -0.8328,0.51464 -1.6117,2.23172 -1.731,3.81575 -0.1193,1.58401 -0.7247,2.88002 -1.3452,2.88002 -0.6206,0 -0.7575,0.6 -0.3043,1.33334 0.4533,0.73333 0.2798,1.33333 -0.3855,1.33333 -1.3299,0 -6.4821,10.65985 -5.9478,12.3062 0.1833,0.56492 -0.3021,1.02713 -1.0787,1.02713 -0.7766,0 -1.0412,0.6 -0.588,1.33334 0.4533,0.73333 0.1533,1.33333 -0.6666,1.33333 -0.8199,0 -1.1199,0.6 -0.6667,1.33333 0.4532,0.73334 0.1886,1.33334 -0.588,1.33334 -0.7766,0 -1.412,0.9 -1.412,2 0,1.1 -0.6354,2 -1.412,2 -0.7766,0 -1.0801,0.53713 -0.6744,1.19362 0.4058,0.65648 -0.1968,1.55226 -1.3391,1.99058 -1.1423,0.43833 -1.7034,1.4012 -1.247,2.13972 0.4564,0.7385 0.1945,1.34274 -0.5821,1.34274 -0.7767,0 -1.4121,0.83582 -1.4121,1.85735 0,1.02155 -0.9859,2.23567 -2.1908,2.69805 -1.205,0.46239 -1.8839,1.14764 -1.5088,1.52278 0.3752,0.37514 -1.0367,2.52202 -3.1374,4.77084 -2.1007,2.24882 -3.512,4.5863 -3.1361,5.19441 0.3758,0.60811 -0.019,1.53981 -0.8778,2.07045 -1.0505,0.64922 -1.2181,0.35224 -0.5126,-0.90786 0.5766,-1.02998 -0.7696,0.22732 -2.9916,2.79398 -2.222,2.56667 -3.8122,5.04147 -3.5337,5.49956 0.2785,0.45811 -1.953,2.85811 -4.9589,5.33334 -3.0059,2.47524 -11.2448,9.30865 -18.3088,15.18534 -7.0639,5.87671 -15.3935,12.40831 -18.5101,14.51467 -3.1167,2.10637 -5.6667,4.38357 -5.6667,5.06045 0,0.67688 -0.5091,0.91603 -1.1314,0.53144 -0.6223,-0.38458 -2.4223,0.50338 -4,1.97326 -1.5777,1.46986 -2.8778,2.19912 -2.889,1.62056 -0.011,-0.57858 -0.4612,-0.43539 -1,0.31818 -0.5388,0.75358 -3.5296,2.4947 -6.6463,3.86916 -3.1166,1.37448 -5.6666,2.90792 -5.6666,3.40766 0,0.49973 -0.8344,0.90861 -1.8541,0.90861 -2.8345,0 -10.1459,3.28919 -10.1459,4.56436 0,0.62135 -0.9985,0.74659 -2.2188,0.27832 -1.611,-0.6182 -1.9197,-0.36771 -1.1273,0.91452 0.7,1.13261 0.5741,1.44623 -0.351,0.87449 -1.245,-0.76949 -6.2673,0.75568 -16.9696,5.15335 -1.4667,0.60267 -3.1167,1.22257 -3.6667,1.37757 -0.55,0.15502 -1.3,0.43183 -1.6666,0.61516 -0.3667,0.18334 -1.2667,0.48334 -2,0.66667 -0.7334,0.18333 -1.7834,0.47743 -2.3334,0.65353 -0.55,0.17612 -2.05,0.2134 -3.3333,0.0828 -1.2833,-0.13053 -2.3333,0.38154 -2.3333,1.13795 0,0.75641 -0.8393,1.05323 -1.8652,0.65957 -1.0258,-0.39364 -2.2115,-0.15528 -2.6348,0.52971 -0.4234,0.68497 -2.2841,0.95593 -4.1349,0.60212 -1.8508,-0.35373 -3.3652,-0.0565 -3.3652,0.66065 0,0.71714 -1.5,1.01714 -3.3333,0.66667 -1.8497,-0.3536 -3.3333,-0.012 -3.3333,0.76773 0,0.86102 -1.8068,1.11175 -4.6667,0.64766 -2.5667,-0.41652 -4.6667,-0.19928 -4.6667,0.48276 0,0.68202 -2.0971,0.99522 -4.6602,0.696 -2.5631,-0.29924 -5.7131,-0.13638 -7,0.3619 -2.1288,0.82431 -192.41523,1.08658 -193.23547,0.26634 C 893.05021,741.49468 897.93188,732 899.02313,732 c 0.62383,0 0.76341,-0.6 0.31019,-1.33333 -0.45323,-0.73334 -0.15323,-1.33334 0.66666,-1.33334 0.8199,0 1.11071,-0.61486 0.64626,-1.36637 -0.46446,-0.75149 -0.34987,-1.28044 0.25464,-1.17544 0.6045,0.10507 1.5491,0.0449 2.0991,-0.13363 0.55,-0.1785 1.6928,-0.39956 2.53956,-0.49122 0.84676,-0.0917 1.74676,-1.21667 2,-2.5 0.74872,-3.7942 1.57438,-7 1.80287,-7 0.1172,0 0.40935,-1.2 0.64916,-2.66667 1.03249,-6.31447 2.06991,-9.35383 3.33684,-9.77615 0.74517,-0.24838 1.01571,-1.00037 0.60119,-1.67106 -0.41451,-0.6707 -0.0828,-1.21946 0.73705,-1.21946 0.81989,0 1.11989,-0.6 0.66667,-1.33333 -0.45323,-0.73333 -0.15323,-1.33333 0.66666,-1.33333 0.8199,0 1.1199,-0.6 0.66667,-1.33334 C 916.21342,696.6 916.40522,696 917.09286,696 c 0.68766,0 2.01468,-1.84548 2.94898,-4.10105 0.93429,-2.25559 3.46817,-5.87051 5.63082,-8.03318 3.41332,-3.4133 3.69431,-4.22538 2.12972,-6.15488 -0.99132,-1.22253 -1.1448,-1.8293 -0.34106,-1.34838 1.43062,0.85602 8.23132,-11.73704 7.53866,-13.95959 -0.18333,-0.58827 0.30208,-1.06959 1.0787,-1.06959 0.77661,0 1.0412,-0.6 0.58797,-1.33333 -0.45323,-0.73333 -0.15323,-1.33333 0.66667,-1.33333 0.81989,0 1.11989,-0.6 0.66666,-1.33334 C 937.54676,656.6 937.84676,656 938.66665,656 c 0.81989,0 1.11989,-0.6 0.66667,-1.33333 -0.45323,-0.73334 -0.20404,-1.33334 0.55373,-1.33334 1.67197,0 5.65349,-7.34832 4.56909,-8.43273 -1.7398,-1.7398 6.64927,-2.35667 21.6389,-1.59116 24.85757,1.26945 119.58636,2.18924 121.86276,1.18325 1.1232,-0.49638 3.039,-0.7816 4.2574,-0.63381 1.2184,0.1478 2.569,-0.30367 3.0013,-1.00324 0.4324,-0.69957 1.9178,-0.97601 3.301,-0.61431 1.3832,0.36171 2.9018,0.0316 3.3747,-0.73361 0.4729,-0.76519 1.7406,-1.05327 2.8172,-0.64017 1.0765,0.4131 1.9572,0.0515 1.9572,-0.80359 0,-0.85507 0.5725,-1.20091 1.2721,-0.76852 1.7227,1.06471 8.2071,-0.6474 7.3997,-1.9538 -0.3537,-0.57231 0.1004,-1.01379 1.0093,-0.98105 4.5619,0.16429 6.4083,-0.47066 5.525,-1.89994 -0.5781,-0.93529 -0.367,-1.17814 0.5379,-0.61886 1.7898,1.10612 14.9227,-5.29747 14.9227,-7.27627 0,-0.76427 0.6,-1.01875 1.3333,-0.56552 0.7334,0.45323 1.3334,0.18864 1.3334,-0.58797 0,-0.77662 0.9,-1.41203 2,-1.41203 1.1,0 2,-0.6 2,-1.33333 0,-0.73334 0.9188,-1.33334 2.0418,-1.33334 1.123,0 2.3859,-0.89656 2.8064,-1.99234 0.4205,-1.09579 1.2494,-1.6927 1.842,-1.32647 0.5925,0.36624 2.3742,-0.98721 3.9591,-3.00765 1.585,-2.02044 2.4518,-2.77354 1.9262,-1.67354 -0.5255,1.1 2.103,-0.9509 5.8412,-4.55756 3.7383,-3.60665 6.4926,-7.04977 6.1208,-7.65138 -0.3718,-0.60162 0.1359,-0.78227 1.1283,-0.40147 1.1476,0.44036 2.4766,-1.02113 3.6514,-4.01527 1.016,-2.58921 2.3352,-4.70765 2.9316,-4.70765 0.5965,0 1.0845,-0.9 1.0845,-2 0,-1.1 0.6,-2 1.3333,-2 0.7334,0 1.3334,-0.9 1.3334,-2 0,-1.1 0.5886,-2 1.3079,-2 0.7194,0 1.6844,-1.5 2.1446,-3.33333 0.4601,-1.83334 1.4069,-3.33334 2.1041,-3.33334 0.6971,0 0.8966,-0.6 0.4434,-1.33333 -0.4532,-0.73333 -0.089,-1.33333 0.8102,-1.33333 0.8988,0 1.244,-0.39024 0.767,-0.8672 -0.4769,-0.47696 0.6867,-2.30731 2.5859,-4.06742 2.5886,-2.39901 3.3112,-4.16716 2.8862,-7.06238 -0.3378,-2.30219 -0.041,-3.53712 0.7353,-3.05743 0.7699,0.47581 0.9946,-0.37123 0.5498,-2.07225 -0.4821,-1.84356 -0.2427,-2.56198 0.6666,-2 0.9092,0.56189 1.1489,-0.15604 0.6672,-1.99816 -0.4136,-1.58134 -0.1381,-2.87516 0.6121,-2.87516 0.7502,0 1.0502,-1.2 0.6667,-2.66667 -0.3836,-1.46667 -0.089,-2.66667 0.6557,-2.66667 0.7774,0 0.9971,-1.418 0.5164,-3.33333 -0.5291,-2.10805 -0.273,-3.33333 0.6966,-3.33333 1.0076,0 1.2736,-1.59984 0.7759,-4.66667 -0.4165,-2.56667 -0.195,-4.66667 0.4922,-4.66667 0.6978,0 1.2495,-6.18172 1.2495,-14 0,-8.61893 -0.5222,-14 -1.3587,-14 -0.7832,0 -1.0047,-1.41066 -0.5229,-3.33034 0.4597,-1.8317 0.3819,-4.3817 -0.1728,-5.66667 -0.5548,-1.28497 -0.8766,-3.68632 -0.7151,-5.33632 0.1615,-1.65 -0.2303,-3 -0.8708,-3 -0.6405,0 -1.2278,-2.23144 -1.3051,-4.95877 -0.077,-2.72732 -0.7325,-5.1561 -1.456,-5.39726 -0.7235,-0.24117 -0.9847,-1.70356 -0.5803,-3.24973 0.4976,-1.90288 0.2414,-2.50608 -0.793,-1.86681 -0.9907,0.61226 -1.2488,0.21668 -0.734,-1.12484 0.4367,-1.1381 0.1087,-2.06926 -0.7289,-2.06926 -1.1386,0 -1.141,-0.7135 -0.01,-2.82757 1.0636,-1.98729 1.0775,-2.55825 0.047,-1.92131 -0.8358,0.51636 -1.4667,-0.0219 -1.4667,-1.25112 0,-1.29121 -0.618,-1.77541 -1.5393,-1.20601 -0.9189,0.56795 -1.1787,0.36792 -0.6446,-0.49629 0.4921,-0.79623 -0.6152,-3.67266 -2.4607,-6.39208 -1.8454,-2.71943 -3.3554,-5.76068 -3.3554,-6.75835 0,-0.99767 -0.6354,-1.81393 -1.412,-1.81393 -0.7766,0 -1.0412,-0.6 -0.588,-1.33334 C 1181.1199,440.6 1180.8553,440 1180.0787,440 c -0.7766,0 -1.4121,-0.94616 -1.4121,-2.10256 0,-1.15641 -1.7269,-3.82949 -3.8376,-5.94017 -2.1106,-2.11068 -3.6277,-4.04751 -3.3711,-4.30407 0.2565,-0.25655 -3.7165,-4.61737 -8.8291,-9.69073 -5.1125,-5.07336 -9.2955,-8.72391 -9.2955,-8.11234 0,0.61158 -1.18,-0.3045 -2.6223,-2.03576 -1.4423,-1.73124 -2.6423,-2.63124 -2.6667,-2 -0.024,0.63126 -1.2244,-0.26874 -2.6666,-2 -1.4423,-1.73124 -2.6423,-2.67433 -2.6667,-2.09576 -0.024,0.57856 -1.3352,-0.15069 -2.9129,-1.62056 -1.5778,-1.46988 -3.3778,-2.35784 -4,-1.97325 -0.6223,0.38459 -1.1315,0.17432 -1.1315,-0.46725 0,-1.89575 -10.5171,-7.24067 -12.2004,-6.20036 -1.0299,0.63654 -1.1811,0.36617 -0.4535,-0.8111 0.7991,-1.29294 0.4786,-1.53077 -1.1966,-0.88794 -1.2584,0.48288 -1.9838,0.38589 -1.6121,-0.21554 0.8588,-1.3896 -13.441,-5.96558 -15.2153,-4.86896 -0.7271,0.44939 -1.3221,0.11174 -1.3221,-0.75046 0,-0.91084 -1.1166,-1.27554 -2.6653,-0.87054 -1.4659,0.38335 -2.9957,0.16251 -3.3994,-0.49076 -0.4037,-0.65326 -2.0543,-1.21901 -3.668,-1.25722 -8.2762,-0.19599 -12.8051,-0.73714 -13.7087,-1.638 -0.5516,-0.55 -9.5626,-1 -20.0243,-1 -17.8502,0 -19.0733,0.16417 -19.8676,2.66666 C 1038.8678,382.8 1037.892,384 1037.1648,384 c -0.7272,0 -0.9514,0.6 -0.4982,1.33333 0.4533,0.73334 0.2041,1.33334 -0.5537,1.33334 -1.7302,0 -5.635,7.3668 -4.5042,8.49762 0.4597,0.45964 0.1003,0.83571 -0.7985,0.83571 -0.8989,0 -1.3023,0.53713 -0.8966,1.19363 0.4058,0.65648 -0.2211,1.56154 -1.393,2.01122 -1.2148,0.46618 -1.8026,1.6725 -1.3675,2.80639 0.4198,1.09381 0.2285,1.98876 -0.4249,1.98876 -0.6534,0 -1.8811,2.1 -2.7282,4.66667 -0.8471,2.56666 -2.129,4.66666 -2.8488,4.66666 -0.7197,0 -0.9378,0.6 -0.4846,1.33334 C 1021.1199,415.4 1020.8199,416 1020,416 c -0.8199,0 -1.1199,0.6 -0.6667,1.33333 0.4532,0.73334 0.3251,1.33334 -0.2848,1.33334 -1.2222,0 -5.8468,8.00188 -5.6569,9.78809 0.066,0.61677 -0.9123,1.87576 -2.1732,2.79772 -1.4277,1.04395 -1.8864,2.33331 -1.2161,3.41792 0.6587,1.06576 0.5512,1.41707 -0.2769,0.90528 -1.3184,-0.81481 -6.7227,9.35129 -6.0588,11.39719 0.1834,0.56492 -0.302,1.02713 -1.0786,1.02713 -0.7767,0 -1.0412,0.6 -0.588,1.33333 0.4532,0.73334 0.318,1.33334 -0.3005,1.33334 -1.6027,0 -5.80074,7.45433 -4.77549,8.47957 0.46956,0.46957 0.1184,0.85376 -0.78049,0.85376 -0.89884,0 -1.26343,0.6 -0.8102,1.33333 0.45322,0.73334 0.15322,1.33334 -0.66667,1.33334 -0.81989,0 -1.11989,0.6 -0.66667,1.33333 0.45323,0.73333 0.15323,1.33333 -0.66666,1.33333 -0.8199,0 -1.1199,0.6 -0.66667,1.33334 C 993.11988,467.4 992.86748,468 992.10577,468 c -1.72812,0 -6.96209,10.03259 -5.82644,11.16824 0.45747,0.45747 0.0964,0.83176 -0.80248,0.83176 -0.89884,0 -1.26343,0.6 -0.8102,1.33333 0.45323,0.73334 0.20083,1.33334 -0.56088,1.33334 -1.72812,0 -6.96209,10.03258 -5.82644,11.16824 0.45747,0.45746 0.0964,0.83176 -0.80248,0.83176 -0.89884,0 -1.26343,0.6 -0.8102,1.33333 0.45323,0.73333 0.257,1.33333 -0.43605,1.33333 -1.35103,0 -6.3098,9.33419 -5.84374,11 0.15388,0.55 -0.35562,1 -1.13224,1 -0.77661,0 -1.0412,0.6 -0.58797,1.33334 C 969.11988,511.4 968.81988,512 967.99998,512 c -0.81989,0 -1.15874,0.53713 -0.75301,1.19363 0.40573,0.65648 -0.12747,1.52558 -1.18476,1.93133 -1.05736,0.40575 -2.57704,3.16861 -3.37707,6.13971 -0.80004,2.9711 -2.06689,5.402 -2.81524,5.402 -0.74834,0 -0.98981,0.6 -0.53658,1.33333 0.45322,0.73333 0.15322,1.33333 -0.66667,1.33333 -0.81989,0 -1.11989,0.6 -0.66667,1.33334 C 958.45321,531.4 958.20081,532 957.4391,532 c -1.72812,0 -6.96209,10.03259 -5.82644,11.16824 0.45747,0.45747 0.0964,0.83176 -0.80248,0.83176 -0.89884,0 -1.26342,0.6 -0.8102,1.33333 0.45323,0.73334 0.15323,1.33334 -0.66666,1.33334 -0.8199,0 -1.1199,0.6 -0.66667,1.33333 0.45323,0.73333 0.17379,1.33333 -0.62097,1.33333 -1.42107,0 -4.68208,6.37764 -4.261,8.33334 0.1184,0.55 -0.42011,1 -1.19672,1 -0.77662,0 -1.0412,0.6 -0.58798,1.33333 0.45323,0.73333 0.15323,1.33333 -0.66666,1.33333 -0.8199,0 -1.1199,0.6 -0.66667,1.33334 C 941.11988,563.4 940.81988,564 939.99998,564 c -0.81989,0 -1.11989,0.6 -0.66666,1.33333 0.45322,0.73334 0.29912,1.33334 -0.34246,1.33334 -1.63118,0 -7.13198,10.08112 -6.07665,11.13645 0.47496,0.47495 0.12813,0.86355 -0.77069,0.86355 -0.89884,0 -1.26343,0.6 -0.8102,1.33333 0.45322,0.73333 0.23516,1.33333 -0.48458,1.33333 -0.71974,0 -2.00168,2.1 -2.84876,4.66667 -0.84708,2.56667 -2.12901,4.66667 -2.84876,4.66667 -0.71973,0 -0.9378,0.6 -0.48457,1.33333 0.45323,0.73333 0.15323,1.33333 -0.66667,1.33333 -0.81989,0 -1.11989,0.6 -0.66666,1.33334 C 923.78654,595.4 923.48654,596 922.66665,596 c -0.81989,0 -1.11989,0.6 -0.66667,1.33333 0.45323,0.73334 0.15323,1.33334 -0.66666,1.33334 -0.8199,0 -1.1199,0.6 -0.66667,1.33333 0.45323,0.73333 0.318,1.33333 -0.30051,1.33333 -1.60262,0 -5.80072,7.45434 -4.77546,8.47958 0.46956,0.46957 0.1184,0.85376 -0.7805,0.85376 -0.89884,0 -1.26342,0.6 -0.8102,1.33333 0.45323,0.73333 0.15323,1.33333 -0.66666,1.33333 -0.8199,0 -1.1199,0.6 -0.66667,1.33334 C 913.11988,615.4 912.84044,616 912.04568,616 c -1.42107,0 -4.68208,6.37764 -4.261,8.33333 0.1184,0.55 -0.42011,1 -1.19672,1 -0.77662,0 -1.0412,0.6 -0.58798,1.33334 C 906.45321,627.4 906.15321,628 905.33332,628 c -0.8199,0 -1.1199,0.6 -0.66667,1.33333 0.45323,0.73334 0.33864,1.33395 -0.25464,1.3347 -1.56855,10e-4 -8.50851,12.79105 -7.49241,13.80714 0.47198,0.47199 0.1228,0.85816 -0.77608,0.85816 -0.89884,0 -1.26343,0.6 -0.8102,1.33334 C 895.78654,647.4 895.53414,648 894.77244,648 c -1.72812,0 -6.9621,10.03259 -5.82644,11.16824 0.45746,0.45747 0.0964,0.83176 -0.80248,0.83176 -0.89884,0 -1.26343,0.6 -0.8102,1.33333 0.45322,0.73334 0.28494,1.33334 -0.37396,1.33334 -1.28632,0 -4.91123,6.67512 -4.52539,8.33333 0.128,0.55 -0.40273,1 -1.17935,1 -0.77661,0 -1.0412,0.6 -0.58797,1.33333 0.45323,0.73334 0.0887,1.33334 -0.8102,1.33334 -0.89884,0 -1.25793,0.37632 -0.79799,0.83625 0.45995,0.45995 -0.96888,3.45995 -3.17516,6.66667 -2.20629,3.20673 -3.56792,5.83041 -3.02586,5.83041 0.54205,0 -0.1208,0.80897 -1.47299,1.79773 -1.54803,1.13195 -2.05991,2.44272 -1.38216,3.53934 0.62501,1.01129 0.54951,1.416 -0.18004,0.9651 -0.69104,-0.42708 -2.07111,1.13022 -3.06681,3.46066 -0.99572,2.33044 -2.6818,5.24936 -3.74687,6.48649 -1.06507,1.23712 -1.485,2.97983 -0.93319,3.87268 0.67631,1.09429 0.44523,1.27845 -0.70902,0.56508 -1.1352,-0.70159 -1.50747,-0.44368 -1.1045,0.76523 0.33431,1.00292 -0.48785,2.99958 -1.82702,4.43701 -1.33918,1.43743 -2.43486,3.70037 -2.43486,5.02876 0,1.32839 -0.63541,2.41525 -1.41202,2.41525 -0.77662,0 -1.0412,0.6 -0.58798,1.33334 C 854.45321,723.4 854.15321,724 853.33332,724 c -0.8199,0 -1.1199,0.6 -0.66667,1.33333 0.45323,0.73334 0.20083,1.33334 -0.56088,1.33334 -1.72812,0 -6.96209,10.03258 -5.82644,11.16824 0.45747,0.45746 0.0964,0.83176 -0.80248,0.83176 -0.89884,0 -1.30228,0.53713 -0.89654,1.19362 0.40573,0.65648 -0.0452,1.49403 -1.00202,1.8612 -0.95684,0.36718 -2.47748,3.13006 -3.3792,6.13972 -2.27668,7.59888 -5.77137,7.38914 -8.7949,-0.52788 z" id="path120"></path>
      <path style="fill:#333333;fill-opacity:1;stroke-width:1.33333" d="m 841.33332,744.07869 c 0,-0.69005 0.59313,-1.62122 1.31807,-2.06925 0.75581,-0.46712 0.97933,0.0681 0.52401,1.25464 -0.88639,2.30989 -1.84208,2.73252 -1.84208,0.81461 z m 97,-1.07813 c 25.85,-0.2024 68.14998,-0.2024 93.99998,0 25.85,0.2024 4.7,0.368 -46.99998,0.368 -51.7,0 -72.85,-0.1656 -47,-0.368 z M 1089,741.72569 c 1.65,-0.31781 4.35,-0.31781 6,0 1.65,0.3178 0.3,0.57783 -3,0.57783 -3.3,0 -4.65,-0.26003 -3,-0.57783 z m 11.3587,-1.31634 c 1.2973,-0.33806 3.0973,-0.31583 4,0.0495 0.9027,0.36524 -0.1587,0.64183 -2.3587,0.61466 -2.2,-0.0272 -2.9386,-0.326 -1.6413,-0.66406 z M 1109,739.11696 c 0.9166,-0.36988 2.4166,-0.36988 3.3333,0 0.9167,0.36988 0.1667,0.67252 -1.6667,0.67252 -1.8333,0 -2.5833,-0.30264 -1.6666,-0.67252 z m 6.6666,-1.33333 c 0.9167,-0.36988 2.4167,-0.36988 3.3334,0 0.9166,0.36988 0.1666,0.67252 -1.6667,0.67252 -1.8333,0 -2.5833,-0.30264 -1.6667,-0.67252 z m -292.33328,-4.4503 c -1.13767,-2.2 -1.76848,-4 -1.40181,-4 0.36666,0 1.59748,1.8 2.73514,4 1.13767,2.2 1.76848,4 1.40182,4 -0.36667,0 -1.59748,-1.8 -2.73515,-4 z M 847.99998,732 c 1.49648,-2.93333 3.02087,-5.33333 3.38754,-5.33333 0.36666,0 -0.55772,2.4 -2.0542,5.33333 -1.49648,2.93333 -3.02087,5.33333 -3.38754,5.33333 -0.36666,0 0.55772,-2.4 2.0542,-5.33333 z m 279.75002,3.08919 c 0.9625,-0.38516 2.1125,-0.3378 2.5555,0.1052 0.4431,0.44305 -0.3444,0.75818 -1.75,0.70029 -1.5532,-0.064 -1.8692,-0.37992 -0.8055,-0.80555 z M 905.18105,719 c 3.03345,-6.05 5.82977,-11 6.21405,-11 0.3843,0 0.0695,1.17569 -0.69954,2.61265 -0.76904,1.43696 -1.3191,3.08696 -1.22235,3.66667 0.0968,0.57971 0.0589,1.35401 -0.084,1.72068 -0.39305,1.00819 -1.23488,4.37927 -1.75719,7.03665 -0.2562,1.30351 -0.81522,2.20351 -1.24226,2 -0.42706,-0.20349 -2.11467,0.83002 -3.75027,2.29668 -2.36841,2.1238 -1.85101,0.42736 2.54157,-8.33333 z m 249.34665,7.54461 c 3.2235,-1.43018 6.0984,-2.36292 6.3886,-2.07272 0.5764,0.57642 -9.6982,4.92004 -11.2766,4.76726 -0.5352,-0.0519 1.6644,-1.26434 4.888,-2.69454 z m -337.27105,-4.21128 -2.79752,-5.66666 3.38915,4 c 1.86403,2.2 3.41072,4.75 3.43709,5.66666 0.0868,3.0173 -1.1905,1.74908 -4.02872,-4 z M 1165.3333,722 c 1.8333,-1.04803 3.9333,-1.90551 4.6667,-1.90551 0.7333,0 -0.1667,0.85748 -2,1.90551 -1.8334,1.04803 -3.9334,1.90551 -4.6667,1.90551 -0.7333,0 0.1667,-0.85748 2,-1.90551 z m -309.33332,-4.58797 c 0,-0.69006 0.59314,-1.62123 1.31807,-2.06926 0.75581,-0.46712 0.97933,0.0681 0.52401,1.25464 -0.88638,2.3099 -1.84208,2.73252 -1.84208,0.81462 z m -47.33333,-10.74536 c -1.13766,-2.2 -1.76848,-4 -1.40181,-4 0.36667,0 1.59748,1.8 2.73515,4 1.13766,2.2 1.76848,4 1.40181,4 -0.36667,0 -1.59748,-1.8 -2.73515,-4 z m 51.35375,3.1477 c -0.0107,-0.83541 1.21346,-2.93541 2.72153,-4.66666 2.15485,-2.47374 2.44991,-2.57674 1.37799,-0.48104 -2.31348,4.52302 -4.07814,6.73888 -4.09952,5.1477 z m 339.3129,-6.31465 c 2.2,-1.87209 4.6,-3.40632 5.3333,-3.40936 1.5218,-0.007 -2.6812,3.43543 -6.6666,5.45911 -1.4667,0.74474 -0.8667,-0.17764 1.3333,-2.04975 z m -333.99998,-3.42103 c 0,-0.69005 0.59313,-1.62122 1.31806,-2.06925 0.75582,-0.46712 0.97934,0.0681 0.52402,1.25464 -0.88639,2.30989 -1.84208,2.73252 -1.84208,0.81461 z m 2.66666,-4.93496 c 0,-0.7154 0.9331,-2.4654 2.07356,-3.88889 1.95516,-2.44041 1.98292,-2.39787 0.48606,0.74516 -1.94375,4.08137 -2.55962,4.83779 -2.55962,3.14373 z m 59.40683,-18.57218 c 7.38081,-13.8488 10.77328,-18.37503 4.79585,-6.39864 -2.2435,4.49509 -3.73382,8.51817 -3.31182,8.94017 0.422,0.42199 -1.16686,2.70139 -3.53078,5.06531 -4.18741,4.1874 -4.13472,3.9916 2.04675,-7.60684 z m -136.07349,-1.90488 c -1.13767,-2.2 -1.76848,-4 -1.40181,-4 0.36666,0 1.59748,1.8 2.73514,4 1.13767,2.2 1.76848,4 1.40182,4 -0.36667,0 -1.59748,-1.8 -2.73515,-4 z m 439.33328,3.47598 c 0,-0.28821 0.9312,-0.88133 2.0693,-1.31806 1.1866,-0.45532 1.7218,-0.2318 1.2546,0.52401 -0.783,1.26695 -3.3239,1.87393 -3.3239,0.79405 z m 18.822,-19.80932 c 3.8444,-4.95 7.2231,-9 7.5081,-9 0.8693,0 -4.4669,7.02322 -9.6242,12.66667 -2.694,2.94804 -1.7476,1.30816 2.1161,-3.66667 z m -465.48861,3 c -0.78494,-1.46666 -1.12716,-2.66666 -0.7605,-2.66666 0.36667,0 1.3089,1.2 2.09383,2.66666 0.78493,1.46667 1.12716,2.66667 0.76049,2.66667 -0.36666,0 -1.30889,-1.2 -2.09382,-2.66667 z m 106.66666,-8 C 892.16313,650.4 893.68752,648 894.05418,648 c 0.36667,0 -0.55772,2.4 -2.0542,5.33333 -1.49648,2.93334 -3.02086,5.33334 -3.38753,5.33334 -0.36667,0 0.55772,-2.4 2.0542,-5.33334 z m 51.33333,-4 c 1.13767,-2.2 2.36848,-4 2.73515,-4 0.36667,0 -0.26415,1.8 -1.40181,4 -1.13767,2.2 -2.36848,4 -2.73515,4 -0.36667,0 0.26415,-1.8 1.40181,-4 z m 66.24452,-4.99804 c 14.4345,-0.21509 38.4345,-0.21538 53.3333,-6.5e-4 14.8989,0.21473 3.0888,0.39072 -26.2445,0.39108 -29.3333,3.6e-4 -41.52328,-0.17533 -27.0888,-0.39043 z M 897.99998,640 c 1.13767,-2.2 2.36848,-4 2.73515,-4 0.36667,0 -0.26415,1.8 -1.40181,4 -1.13767,2.2 -2.36848,4 -2.73515,4 -0.36667,0 0.26415,-1.8 1.40181,-4 z m 193.75002,3.08919 c 0.9625,-0.38516 2.1125,-0.3378 2.5555,0.1052 0.4431,0.44305 -0.3444,0.75818 -1.75,0.70029 -1.5532,-0.064 -1.8692,-0.37992 -0.8055,-0.80555 z m 6.6666,-1.33334 c 0.9625,-0.38516 2.1126,-0.3378 2.5556,0.1052 0.4431,0.44306 -0.3444,0.75819 -1.75,0.7003 -1.5533,-0.064 -1.8692,-0.37992 -0.8056,-0.80555 z m 16.9553,-4.86648 c 4.4212,-1.7668 11.1712,-4.7998 15,-6.74 3.8288,-1.94018 6.9614,-3.1786 6.9614,-2.75201 0,1.16231 -21.3963,10.94345 -26,11.88568 -2.2,0.45028 -0.3826,-0.62688 4.0386,-2.39367 z M 765.99999,628 c -1.13767,-2.2 -1.76848,-4 -1.40182,-4 0.36667,0 1.59748,1.8 2.73515,4 1.13767,2.2 1.76848,4 1.40181,4 -0.36666,0 -1.59748,-1.8 -2.73514,-4 z m 508.93541,-9.97075 c 1.5955,-3.2839 3.1296,-5.74205 3.4091,-5.46254 0.6031,0.60318 -4.7844,11.43329 -5.6876,11.43329 -0.3423,0 0.6831,-2.68684 2.2785,-5.97075 z m -365.60208,0.71611 c 0,-0.69005 0.59313,-1.62123 1.31806,-2.06925 0.75582,-0.46712 0.97934,0.0681 0.52402,1.25464 -0.88639,2.30989 -1.84208,2.73252 -1.84208,0.81461 z m 241.33328,-0.58211 c 0,-0.27686 1.05,-1.32686 2.3334,-2.33333 2.1147,-1.65849 2.1619,-1.61133 0.5034,0.50341 -1.7418,2.221 -2.8368,2.92731 -2.8368,1.82992 z M 758.66665,614.66667 C 757.88172,613.2 757.53949,612 757.90616,612 c 0.36667,0 1.30889,1.2 2.09383,2.66667 0.78493,1.46666 1.12716,2.66666 0.76049,2.66666 -0.36667,0 -1.30889,-1.2 -2.09383,-2.66666 z m 404.56785,-8 c 4.3453,-4.76667 8.7031,-9.55324 9.6841,-10.63683 1.4974,-1.65401 1.5182,-1.44007 0.1295,1.33333 -0.9097,1.81692 -5.2676,6.6035 -9.6841,10.63683 l -8.03,7.33333 z m -247.23452,0 C 916.78492,605.2 917.72714,604 918.09381,604 c 0.36667,0 0.0244,1.2 -0.76049,2.66667 -0.78494,1.46666 -1.72716,2.66666 -2.09383,2.66666 -0.36667,0 -0.0244,-1.2 0.76049,-2.66666 z m 369.44742,-13.33334 c -0.04,-1.1 0.5084,-2.9 1.2192,-4 1.5751,-2.43729 1.5751,-0.33212 0,3.33334 -0.7555,1.75832 -1.1708,1.98541 -1.2192,0.66666 z M 741.99999,584 c -1.13767,-2.2 -1.76848,-4 -1.40182,-4 0.36667,0 1.59748,1.8 2.73515,4 1.13767,2.2 1.76848,4 1.40181,4 -0.36666,0 -1.59748,-1.8 -2.73514,-4 z m -3.91428,-7.60916 c -0.72358,-1.90027 -0.57043,-2.05341 0.7464,-0.7464 0.91122,0.90445 1.32089,1.98032 0.91037,2.39084 -0.41052,0.41052 -1.15607,-0.32948 -1.65677,-1.64444 z m 195.91427,-3.05751 c 1.13767,-2.2 2.36848,-4 2.73515,-4 0.36667,0 -0.26415,1.8 -1.40181,4 -1.13767,2.2 -2.36848,4 -2.73515,4 -0.36667,0 0.26415,-1.8 1.40181,-4 z m -200.60074,-5.20412 c -1.53273,-3.0044 -2.53385,-5.46254 -2.22472,-5.46254 1.00235,0 6.28697,9.6496 5.63933,10.29725 -0.3453,0.34531 -1.88189,-1.83032 -3.41461,-4.83471 z m 454.60566,3.53746 c 0,-0.18334 1.8379,-4.83334 4.0783,-10.33334 2.2404,-5.5 3.7149,-8.5 3.2766,-6.66666 -0.4383,1.83333 -1.1673,5.37704 -1.62,7.87492 -0.4526,2.49786 -1.9293,5.64786 -3.2814,7 -1.3521,1.35212 -2.4562,2.30841 -2.4535,2.12508 z M 1293.5438,564 c 0,-1.83333 0.3027,-2.58333 0.6726,-1.66667 0.3698,0.91667 0.3698,2.41667 0,3.33334 -0.3699,0.91666 -0.6726,0.16666 -0.6726,-1.66667 z m 1.3828,-7.33333 c 0.027,-2.2 0.326,-2.93859 0.664,-1.6413 0.3381,1.2973 0.3159,3.0973 -0.049,4 -0.3653,0.90271 -0.6419,-0.1587 -0.6147,-2.3587 z m -349.59328,-4.58798 c 0,-0.69005 0.59313,-1.62122 1.31806,-2.06925 0.75582,-0.46712 0.97934,0.0681 0.52402,1.25464 -0.88639,2.30989 -1.84208,2.73252 -1.84208,0.81461 z m 350.87718,-2.74536 c 0,-1.83333 0.3026,-2.58333 0.6725,-1.66666 0.3699,0.91666 0.3699,2.41666 0,3.33333 -0.3699,0.91667 -0.6725,0.16667 -0.6725,-1.66667 z m -100.1053,-0.77777 c 0.064,-1.55327 0.38,-1.8692 0.8056,-0.80556 0.3852,0.96249 0.3378,2.11251 -0.1052,2.55556 -0.4431,0.44305 -0.7582,-0.34445 -0.7003,-1.75 z M 839.99999,541.33333 C 841.49647,538.4 843.02085,536 843.38752,536 c 0.36667,0 -0.55772,2.4 -2.0542,5.33333 -1.49648,2.93334 -3.02087,5.33334 -3.38753,5.33334 -0.36667,0 0.55772,-2.4 2.0542,-5.33334 z m 357.43861,1.8889 c 0.064,-1.55327 0.3799,-1.8692 0.8055,-0.80556 0.3852,0.96249 0.3378,2.1125 -0.1052,2.55556 -0.443,0.44305 -0.7582,-0.34446 -0.7003,-1.75 z m -478.01956,-1.49806 c -0.72357,-1.90026 -0.57043,-2.05341 0.7464,-0.7464 0.91123,0.90446 1.32089,1.98032 0.91037,2.39084 -0.41052,0.41052 -1.15606,-0.32948 -1.65677,-1.64444 z m 578.25056,-2.39084 c 0.015,-2.93333 0.2878,-3.97633 0.6067,-2.31778 0.3189,1.65854 0.3068,4.05854 -0.027,5.33333 -0.3337,1.27479 -0.5947,-0.0823 -0.5799,-3.01555 z m -344.33628,-2 C 954.8298,534.4 956.35418,532 956.72085,532 c 0.36667,0 -0.55772,2.4 -2.0542,5.33333 -1.49648,2.93334 -3.02087,5.33334 -3.38753,5.33334 -0.36667,0 0.55772,-2.4 2.0542,-5.33334 z m -238,-2.66666 c -1.13767,-2.2 -1.76848,-4 -1.40181,-4 0.36666,0 1.59748,1.8 2.73514,4 1.13767,2.2 1.76848,4 1.40182,4 -0.36667,0 -1.59748,-1.8 -2.73515,-4 z m 483.59328,0.66666 c 0.027,-2.2 0.326,-2.93858 0.664,-1.64129 0.3381,1.29729 0.3159,3.09729 -0.049,4 -0.3653,0.90271 -0.6419,-0.15871 -0.6147,-2.35871 z m -377.07841,-9 c -1.22116,-2.38333 -2.8097,-4.71394 -3.5301,-5.17913 -0.72038,-0.46519 -1.03016,-1.66519 -0.68836,-2.66667 0.35135,-1.02948 2.1702,1.22146 4.18498,5.17914 1.95994,3.85 3.26884,7 2.90865,7 -0.3602,0 -1.65403,-1.95 -2.87517,-4.33334 z m 30.15179,-7.66666 C 854.94969,512.8 857.66308,508 858.02974,508 c 0.36667,0 -1.74672,4.8 -4.69642,10.66667 -2.94971,5.86666 -5.6631,10.66666 -6.02976,10.66666 -0.36667,0 1.74672,-4.8 4.69642,-10.66666 z m 348.49872,-3.33334 c 0,-8.06666 0.2227,-11.19476 0.4881,-6.95132 0.2654,4.24344 0.2629,10.84344 -0.01,14.66667 -0.2684,3.82323 -0.4855,0.35132 -0.4825,-7.71535 z M 1299.1757,514 c 0,-8.8 0.2184,-12.22649 0.4795,-7.61441 0.2611,4.61206 0.259,11.81206 -0.01,16 -0.2638,4.18792 -0.4774,0.41441 -0.4748,-8.38559 z m -336.50905,6.47707 c 0,-0.7154 0.93309,-2.4654 2.07356,-3.8889 1.95516,-2.44041 1.98292,-2.39786 0.48605,0.74516 -1.94374,4.08138 -2.55961,4.83779 -2.55961,3.14374 z m -257.91428,-5.41956 c -0.72357,-1.90027 -0.57042,-2.05342 0.7464,-0.7464 0.91123,0.90445 1.3209,1.98032 0.91038,2.39084 -0.41052,0.41052 -1.15607,-0.32948 -1.65678,-1.64444 z m -8.52353,-15.72332 c -2.18429,-4.03287 -3.41795,-6.9904 -2.74145,-6.57231 1.37269,0.84837 8.22906,13.90479 7.30186,13.90479 -0.32393,0 -2.37612,-3.29962 -4.56041,-7.33248 z m 275.77114,3.41117 c 0,-0.69005 0.59314,-1.62123 1.31807,-2.06925 0.75581,-0.46712 0.97933,0.0681 0.52401,1.25464 -0.88638,2.30989 -1.84208,2.73252 -1.84208,0.81461 z M 805.11509,495 c -3.61436,-5.82512 -9.84985,-18.95948 -8.07069,-17 1.57909,1.73912 12.33188,22 11.67577,22 -0.27648,0 -1.89877,-2.25 -3.60508,-5 z m 58.30395,1.94249 c 0.5007,-1.31496 1.24625,-2.05496 1.65677,-1.64444 0.41052,0.41052 8.5e-4,1.48639 -0.91037,2.39084 -1.31683,1.30702 -1.46998,1.15387 -0.7464,-0.7464 z m 335.50756,-1.60916 c 0.027,-2.2 0.326,-2.93858 0.664,-1.64129 0.3381,1.29729 0.3159,3.09729 -0.049,4 -0.3653,0.90271 -0.6419,-0.15871 -0.6147,-2.35871 z M 1297.6696,490 c 0.015,-2.93333 0.2878,-3.97633 0.6067,-2.31779 0.3189,1.65855 0.3068,4.05855 -0.027,5.33334 -0.3337,1.27478 -0.5947,-0.0823 -0.5799,-3.01555 z m -427.00628,-7 c 2.95153,-6.05 5.63425,-11 5.9616,-11 0.86449,0 -6.59736,15.49504 -9.15639,19.01387 -1.19441,1.64237 0.24325,-1.96387 3.19479,-8.01387 z m 109.33666,5 c 1.49648,-2.93333 3.02087,-5.33333 3.38754,-5.33333 0.36666,0 -0.55772,2.4 -2.0542,5.33333 -1.49648,2.93333 -3.02087,5.33333 -3.38754,5.33333 -0.36666,0 0.55772,-2.4 2.0542,-5.33333 z m 217.54382,-1.33333 c 0,-1.83334 0.3027,-2.58334 0.6726,-1.66667 0.3698,0.91667 0.3698,2.41667 0,3.33333 -0.3699,0.91667 -0.6726,0.16667 -0.6726,-1.66666 z m -508.79143,-0.9425 c -0.72357,-1.90026 -0.57042,-2.05341 0.7464,-0.7464 0.91123,0.90446 1.3209,1.98032 0.91038,2.39084 -0.41052,0.41052 -1.15607,-0.32948 -1.65678,-1.64444 z m 607.50753,-6.39084 c 0.027,-2.2 0.326,-2.93858 0.6641,-1.64129 0.338,1.29729 0.3158,3.09729 -0.05,4 -0.3652,0.90271 -0.6418,-0.15871 -0.6147,-2.35871 z m -308.25992,-6 C 989.49646,470.4 991.02085,468 991.38752,468 c 0.36666,0 -0.55772,2.4 -2.0542,5.33333 -1.49648,2.93334 -3.02087,5.33334 -3.38754,5.33334 -0.36666,0 0.55772,-2.4 2.0542,-5.33334 z m 206.77192,1.8889 c 0.064,-1.55327 0.3799,-1.8692 0.8056,-0.80556 0.3851,0.96249 0.3378,2.1125 -0.1052,2.55556 -0.4431,0.44305 -0.7582,-0.34446 -0.7003,-1.75 z m 100.1547,-3.8889 c 0.027,-2.2 0.326,-2.93858 0.664,-1.64129 0.3381,1.29729 0.3159,3.09729 -0.049,4 -0.3653,0.90271 -0.6419,-0.15871 -0.6147,-2.35871 z m -616.25995,-4.66666 c -1.49648,-2.93334 -2.42086,-5.33334 -2.0542,-5.33334 0.36667,0 1.89106,2.4 3.38754,5.33334 1.49648,2.93333 2.42086,5.33333 2.0542,5.33333 -0.36667,0 -1.89106,-2.4 -3.38754,-5.33333 z m 514.77195,4.44238 c -0.058,-0.85669 -0.4506,-2.65669 -0.8726,-4 -0.7294,-2.32162 -0.6918,-2.32453 0.761,-0.0588 0.8406,1.31096 1.2333,3.11096 0.8726,4 -0.4733,1.16666 -0.685,1.18303 -0.761,0.0588 z M 1293.5438,464 c 0,-1.83333 0.3027,-2.58333 0.6726,-1.66667 0.3698,0.91667 0.3698,2.41667 0,3.33334 -0.3699,0.91666 -0.6726,0.16666 -0.6726,-1.66667 z m -411.28328,-3.31659 c 1.21957,-2.55746 2.4541,-4.41321 2.74341,-4.1239 0.60995,0.60994 -3.4376,8.77382 -4.34995,8.77382 -0.33597,0 0.38698,-2.09246 1.60654,-4.64992 z m 306.64098,-2.35008 c -1.7493,-4.56893 -1.7885,-5.16529 -0.2022,-3.07849 1.082,1.42349 1.9673,3.40891 1.9673,4.41203 0,1.0031 0.5932,1.45726 1.3181,1.00924 0.7558,-0.46712 0.9793,0.0681 0.524,1.25464 -1.0956,2.85517 -1.162,2.78898 -3.6072,-3.59742 z M 784.45456,456 c -1.29957,-2.2 -3.16891,-4 -4.15407,-4 -0.98517,0 -1.42466,-0.59308 -0.97666,-1.31796 0.448,-0.72488 -0.44823,-4.17488 -1.99162,-7.66667 -1.54338,-3.49178 -2.26192,-5.7487 -1.59673,-5.01537 1.87795,2.07033 12.53725,22 11.76661,22 -0.37657,0 -1.74796,-1.8 -3.04753,-4 z m 507.65064,1.88889 c 0.064,-1.55326 0.38,-1.8692 0.8056,-0.80556 0.3852,0.9625 0.3378,2.11251 -0.1052,2.55556 -0.4431,0.44306 -0.7582,-0.34445 -0.7003,-1.75 z M 997.33332,456 c 0.78493,-1.46667 1.72716,-2.66667 2.09382,-2.66667 0.36667,0 0.0244,1.2 -0.76049,2.66667 -0.78493,1.46667 -1.72716,2.66667 -2.09383,2.66667 -0.36666,0 -0.0244,-1.2 0.7605,-2.66667 z m -326,-2.66667 c -1.13767,-2.2 -1.76848,-4 -1.40181,-4 0.36666,0 1.59748,1.8 2.73514,4 1.13767,2.2 1.76848,4 1.40182,4 -0.36667,0 -1.59748,-1.8 -2.73515,-4 z M 886.7737,452 c 1.94375,-4.08137 2.55962,-4.83779 2.55962,-3.14373 0,0.7154 -0.9331,2.4654 -2.07356,3.88889 -1.95516,2.44041 -1.98292,2.39787 -0.48606,-0.74516 z m 403.9982,0.55556 c 0.064,-1.55327 0.3799,-1.8692 0.8056,-0.80556 0.3851,0.96249 0.3378,2.11251 -0.1052,2.55556 -0.4431,0.44305 -0.7582,-0.34445 -0.7003,-1.75 z m -400.6862,-7.61307 c 0.50071,-1.31496 1.24626,-2.05496 1.65678,-1.64444 0.41052,0.41052 8.5e-4,1.48639 -0.91038,2.39084 -1.31682,1.30702 -1.46997,1.15387 -0.7464,-0.7464 z m 116.5809,-6.27582 c 2.2212,-4.4 4.3384,-8 4.7051,-8 0.3667,0 -1.1506,3.6 -3.3717,8 -2.2211,4.4 -4.3384,8 -4.7051,8 -0.3666,0 1.1506,-3.6 3.3717,-8 z m -110.47946,-5.27814 c 2.40223,-4.36964 4.5822,-7.73029 4.84439,-7.4681 0.57557,0.57558 -7.68633,15.4129 -8.58241,15.4129 -0.34631,0 1.33581,-3.57516 3.73802,-7.9448 z M 1174.6625,433 c -1.963,-2.68147 -2.2849,-3.61273 -0.8446,-2.44299 2.1864,1.7756 5.4923,6.77632 4.4797,6.77632 -0.2545,0 -1.8903,-1.95 -3.6351,-4.33333 z m 110.1689,0.94845 c -0.4573,-1.1916 -0.7934,-2.86748 -0.7469,-3.72417 0.047,-0.85668 0.6594,-0.12053 1.362,1.63596 0.7026,1.75647 1.0387,3.43235 0.7468,3.72417 -0.2918,0.29183 -0.9047,-0.44436 -1.3619,-1.63596 z m -271.4981,-7.28178 C 1014.1182,425.2 1015.0605,424 1015.4271,424 c 0.3667,0 0.024,1.2 -0.7605,2.66667 -0.7849,1.46666 -1.7271,2.66666 -2.0938,2.66666 -0.3666,0 -0.024,-1.2 0.7605,-2.66666 z m 148.6309,-8.33334 -9.2976,-9.66666 9.6667,9.29757 c 8.9784,8.63559 10.2756,10.03576 9.2976,10.03576 -0.203,0 -4.553,-4.35 -9.6667,-9.66667 z m 119.3431,6.00564 c -2.5282,-5.17929 -5.2656,-12.82514 -4.7694,-13.32137 0.2298,-0.22979 2.0211,3.27895 3.9806,7.79721 3.5645,8.21907 4.1683,12.44752 0.7888,5.52416 z m -629.30731,-7.00564 c -0.78493,-1.46666 -1.12716,-2.66666 -0.76049,-2.66666 0.36666,0 1.30889,1.2 2.09382,2.66666 0.78494,1.46667 1.12716,2.66667 0.7605,2.66667 -0.36667,0 -1.3089,-1.2 -2.09383,-2.66667 z m 110.66153,-2.0083 c -1.59108,-2.57443 -3.52979,-4.27914 -4.31476,-3.79399 -0.80723,0.49889 -1.03963,0.25668 -0.53584,-0.55845 1.06291,-1.71983 -1.77161,-8.4876 -3.18816,-7.61212 -0.54301,0.33558 -1.68441,-0.2298 -2.53644,-1.25644 -1.00869,-1.2154 -1.08172,-2.15551 -0.20931,-2.6947 0.73691,-0.45544 0.99223,-1.85885 0.56735,-3.1187 -1.34944,-4.00144 2.66353,2.23866 8.60205,13.37604 5.74987,10.78357 6.57994,13.69161 1.61511,5.65836 z m 146.09085,-6.38254 c 0.50071,-1.31496 1.24625,-2.05496 1.65677,-1.64444 0.41052,0.41052 8.6e-4,1.48639 -0.91037,2.39084 -1.31683,1.30702 -1.46997,1.15387 -0.7464,-0.7464 z M 1149.1632,407 c -1.6585,-2.11475 -1.6113,-2.16191 0.5034,-0.50341 2.221,1.74182 2.9274,2.83674 1.83,2.83674 -0.2769,0 -1.3269,-1.05 -2.3334,-2.33333 z m 122.1701,-4.33333 C 1269.4753,399 1268.2551,396 1268.6217,396 c 0.3667,0 2.1869,3 4.0449,6.66667 1.8581,3.66666 3.0783,6.66666 2.7116,6.66666 -0.3666,0 -2.1868,-3 -4.0449,-6.66666 z M 1143.8299,403 c -1.6585,-2.11475 -1.6113,-2.16191 0.5034,-0.50341 1.2833,1.00646 2.3333,2.05646 2.3333,2.33333 0,1.09739 -1.0949,0.39108 -2.8367,-1.82992 z m -501.82991,-4.33333 c -1.13767,-2.2 -1.76848,-4 -1.40181,-4 0.36666,0 1.59748,1.8 2.73514,4 1.13767,2.2 1.76848,4 1.40182,4 -0.36667,0 -1.59748,-1.8 -2.73515,-4 z m 384.66661,2.74536 c 0,-0.69006 0.5932,-1.62123 1.3181,-2.06926 0.7558,-0.46712 0.9793,0.0681 0.524,1.25464 -0.8864,2.3099 -1.8421,2.73252 -1.8421,0.81462 z m -113.33328,-0.52054 c 0,-1.25586 11.96,-23.16873 11.98257,-21.95422 0.009,0.51549 -0.73257,2.61549 -1.64924,4.66666 -2.17748,4.87243 -10.33333,18.51708 -10.33333,17.28756 z m 213.99998,-7.21236 c -2.2,-1.21776 -8.5,-3.86016 -14,-5.87201 -11.2346,-4.10952 -11.0795,-5.18173 0.1887,-1.30488 7.7824,2.67751 18.478,7.80491 18.478,8.85819 0,0.87656 -0.1308,0.82944 -4.6667,-1.6813 z m -94.6667,-3.01246 c 1.1377,-2.2 2.3685,-4 2.7352,-4 0.3667,0 -0.2642,1.8 -1.4018,4 -1.1377,2.2 -2.3685,4 -2.7352,4 -0.3666,0 0.2642,-1.8 1.4018,-4 z m 228.6667,-5.33334 c -0.7849,-1.46666 -1.1271,-2.66666 -0.7605,-2.66666 0.3667,0 1.3089,1.2 2.0938,2.66666 0.785,1.46667 1.1272,2.66667 0.7605,2.66667 -0.3666,0 -1.3089,-1.2 -2.0938,-2.66667 z M 1099.75,383.08919 c 0.9625,-0.38516 2.1125,-0.3378 2.5555,0.1052 0.4431,0.44305 -0.3444,0.75818 -1.75,0.70029 -1.5532,-0.064 -1.8692,-0.37992 -0.8055,-0.80555 z m -6.6667,-1.33334 c 0.9625,-0.38516 2.1125,-0.3378 2.5556,0.1052 0.443,0.44306 -0.3445,0.75819 -1.75,0.7003 -1.5533,-0.064 -1.8692,-0.37992 -0.8056,-0.80555 z m -8,-1.33333 c 0.9625,-0.38516 2.1125,-0.3378 2.5556,0.1052 0.443,0.44305 -0.3445,0.75819 -1.75,0.70029 -1.5533,-0.064 -1.8692,-0.37992 -0.8056,-0.80554 z M 1249.607,369 c -5.312,-6.78333 -6.9781,-9.38553 -3.7026,-5.78268 5.7389,6.31227 14.7377,18.11601 13.8111,18.11601 -0.2477,0 -4.7965,-5.55 -10.1085,-12.33333 z m -199.8794,10.00783 c 5.7168,-0.25054 14.7168,-0.24902 20,0.004 5.2831,0.2524 0.6057,0.45738 -10.3943,0.45552 -11,-0.001 -15.3226,-0.20839 -9.6057,-0.45892 z m -123.6419,-3.39867 c 0.50071,-1.31496 1.24626,-2.05496 1.65678,-1.64444 0.41052,0.41052 8.5e-4,1.48639 -0.91038,2.39084 -1.31682,1.30701 -1.46997,1.15387 -0.7464,-0.7464 z M 735.97596,365.28624 c -1.50969,-2.95924 -3.32893,-5.01947 -4.04276,-4.57829 -0.71383,0.44116 -1.66832,-1.05014 -2.12109,-3.31399 -0.45278,-2.26387 -1.34572,-4.43904 -1.98434,-4.83373 -0.63861,-0.39468 -1.1424,-1.7322 -1.1195,-2.97226 0.0248,-1.34066 1.40376,-0.0927 3.40181,3.0787 4.50888,7.1565 10.09496,18 9.2728,18 -0.36412,0 -1.89723,-2.42119 -3.40692,-5.38043 z m -113.3093,-2.61957 C 621.88172,361.2 621.5395,360 621.90616,360 c 0.36667,0 1.3089,1.2 2.09383,2.66667 0.78493,1.46666 1.12716,2.66666 0.76049,2.66666 -0.36666,0 -1.30889,-1.2 -2.09382,-2.66666 z m 322.66666,-24 c 3.68004,-7.33334 6.99097,-13.33334 7.35764,-13.33334 0.36666,0 -2.34427,6 -6.02431,13.33334 C 942.98661,346 939.67568,352 939.30901,352 c -0.36667,0 2.34427,-6 6.02431,-13.33333 z m -333.33333,4 c -4.18864,-8.29764 -4.51341,-11.29592 -0.39717,-3.66667 3.34798,6.20532 5.69729,11.66667 5.01866,11.66667 -0.3207,0 -2.40038,-3.6 -4.62149,-8 z m 609.32371,-3.03608 c -2.5719,-2.3635 -7.0719,-6.29718 -10,-8.74152 L 1206,326.4448 l 6.1935,4.23659 c 5.5217,3.77698 15.9283,13.37513 14.4014,13.28253 -0.3272,-0.0199 -2.6992,-1.96984 -5.2712,-4.33333 z M 714.49657,331 c -1.65849,-2.11475 -1.61133,-2.16191 0.50342,-0.50341 1.28333,1.00646 2.33333,2.05646 2.33333,2.33333 0,1.09739 -1.09492,0.39108 -2.83675,-1.82992 z m -4.02641,-3.89275 c -1.20808,-0.32088 -2.51988,-1.81997 -2.91511,-3.33132 -0.6893,-2.63594 -0.58624,-2.62357 2.52984,0.30383 2.7786,2.61037 4.0977,4.31431 2.9151,3.76557 -0.18334,-0.0851 -1.32176,-0.4172 -2.52983,-0.73808 z m 492.02644,-2.77392 c -1.6585,-2.11474 -1.6114,-2.1619 0.5034,-0.50341 2.221,1.74183 2.9273,2.83675 1.8299,2.83675 -0.2769,0 -1.3269,-1.05 -2.3333,-2.33334 z m -249.16328,-1.58797 c 0,-0.69005 0.59313,-1.62123 1.31806,-2.06925 0.75582,-0.46712 0.97934,0.0681 0.52402,1.25464 -0.88639,2.30989 -1.84208,2.73252 -1.84208,0.81461 z M 1174,308 c -0.4532,-0.73333 -0.2241,-1.33333 0.5093,-1.33333 0.7333,0 1.7041,0.6 2.1573,1.33333 0.4533,0.73333 0.2241,1.33333 -0.5092,1.33333 -0.7334,0 -1.7042,-0.6 -2.1574,-1.33333 z" id="path118"></path>
    </g>
  </g></svg></g></g></svg>